<?xml version="1.0" encoding="UTF-8"?>
<svg width="12px" height="12px" viewBox="0 0 12 12" version="1.1" xmlns="http://www.w3.org/2000/svg" xmlns:xlink="http://www.w3.org/1999/xlink">
    <title>close</title>
    <g id="会员系统" stroke="none" stroke-width="1" fill="none" fill-rule="evenodd">
        <g id="D1-2-JSCS会员-非会员" transform="translate(-1240.000000, -130.000000)" fill="#FFB138">
            <g id="内容" transform="translate(200.000000, 114.000000)">
                <g id="提示" transform="translate(0.000000, 0.000000)">
                    <path d="M1051.79382,16.2061805 C1052.06873,16.4810878 1052.06873,16.9268006 1051.79382,17.2017079 L1046.995,22 L1051.79382,26.7982921 C1052.06873,27.0731994 1052.06873,27.5189122 1051.79382,27.7938195 C1051.51891,28.0687268 1051.0732,28.0687268 1050.79829,27.7938195 L1046,22.995 L1041.20171,27.7938195 C1040.9268,28.0687268 1040.48109,28.0687268 1040.20618,27.7938195 C1039.93127,27.5189122 1039.93127,27.0731994 1040.20618,26.7982921 L1045.005,22 L1040.20618,17.2017079 C1039.93127,16.9268006 1039.93127,16.4810878 1040.20618,16.2061805 C1040.48109,15.9312732 1040.9268,15.9312732 1041.20171,16.2061805 L1046,21.005 L1050.79829,16.2061805 C1051.0732,15.9312732 1051.51891,15.9312732 1051.79382,16.2061805 Z" id="close"></path>
                </g>
            </g>
        </g>
    </g>
</svg>