<?xml version="1.0" encoding="UTF-8"?>
<svg width="16px" height="16px" viewBox="0 0 16 16" version="1.1" xmlns="http://www.w3.org/2000/svg" xmlns:xlink="http://www.w3.org/1999/xlink">
    <title>icon</title>
    <g id="会员系统" stroke="none" stroke-width="1" fill="none" fill-rule="evenodd">
        <g id="C1-3-重置密码" transform="translate(-1447.000000, -600.000000)" fill="#999999">
            <g id="密码登录" transform="translate(1030.000000, 316.000000)">
                <g id="输入框" transform="translate(0.000000, 64.000000)">
                    <g id="icon" transform="translate(417.000000, 220.000000)">
                        <path d="M7.99998993,6.22694335 C6.99504449,6.22694335 6.17749659,7.02246447 6.17749659,8.00035376 C6.17749659,8.97753749 6.99504449,9.77307821 7.99998993,9.77307821 C9.00503607,9.77307821 9.82250341,8.97753749 9.82250341,8.00035376 C9.82250341,7.02246447 9.00503607,6.22694335 7.99998993,6.22694335 M7.99998993,10.8677576 C6.37309175,10.8661505 5.05460189,9.58341923 5.05246688,8.00035376 C5.05246688,6.41887581 6.37474336,5.13232276 7.99998993,5.13232276 C9.62525664,5.13232276 10.947513,6.41887581 10.947513,8.00035376 C10.9454787,9.58341923 9.62690825,10.8661505 7.99998993,10.8677576 M7.99998993,3.09540455 C4.12927623,3.09540455 1.62500957,6.66341183 1.62500957,7.89745931 L1.62500957,8.10471814 C1.62500957,9.33882441 4.12927623,12.9060477 7.99998993,12.9060477 C11.8092717,12.9060477 14.3622207,9.48550291 14.3749703,8.10032797 L14.3749703,7.89308874 C14.3622207,6.51236277 11.8092717,3.09540455 7.99998993,3.09540455 M7.99998993,14 C3.41078476,14 0.5,9.85406104 0.5,8.10401257 L0.5,7.89677334 C0.5,6.14672488 3.41078476,2 7.99998993,2 C12.6342317,2 15.4842694,6.08906479 15.5,7.88726786 L15.5,8.10324821 C15.4842694,9.90880089 12.6350173,14 7.99998993,14" id="Fill-1"></path>
                    </g>
                </g>
            </g>
        </g>
    </g>
</svg>